HIERARCHY
ROOT Hips
{
	OFFSET 0.000000 89.005402 0.000000
	CHANNELS 6 Xposition Yposition Zposition Xrotation Yrotation Zrotation
	JOINT Spine
	{
		OFFSET 0.116900 10.681000 0.373400
		CHANNELS 3 Xrotation Yrotation Zrotation
		JOINT Spine1
		{
			OFFSET 0.000000 13.840401 0.053500
			CHANNELS 3 Xrotation Yrotation Zrotation
			JOINT Spine2
			{
				OFFSET 0.000000 14.712700 -0.366200
				CHANNELS 3 Xrotation Yrotation Zrotation
				JOINT Neck
				{
					OFFSET 0.000000 35.415497 -3.314200
					CHANNELS 3 Xrotation Yrotation Zrotation
					JOINT Head
					{
						OFFSET 0.000000 16.899200 1.218300
						CHANNELS 3 Xrotation Yrotation Zrotation
						JOINT HeadTop_End
						{
							OFFSET 0.000000 22.206207 2.192500
							CHANNELS 3 Xrotation Yrotation Zrotation
							End Site
							{
								OFFSET 0.000000 22.314178 0.000000
							}
						}
					}
				}
				JOINT LeftShoulder
				{
					OFFSET 12.896400 26.716293 -4.548400
					CHANNELS 3 Xrotation Yrotation Zrotation
					JOINT LeftArm
					{
						OFFSET 19.027000 -4.857010 -1.718400
						CHANNELS 3 Xrotation Yrotation Zrotation
						JOINT LeftForeArm
						{
							OFFSET 24.179897 0.000000 0.000000
							CHANNELS 3 Xrotation Yrotation Zrotation
							JOINT LeftHand
							{
								OFFSET 27.156403 0.000000 0.000000
								CHANNELS 3 Xrotation Yrotation Zrotation
								JOINT LeftHandIndex1
								{
									OFFSET 16.441200 0.000000 0.000000
									CHANNELS 3 Xrotation Yrotation Zrotation
									JOINT LeftHandIndex2
									{
										OFFSET 4.821899 0.000000 0.000000
										CHANNELS 3 Xrotation Yrotation Zrotation
										JOINT LeftHandIndex3
										{
											OFFSET 6.386497 0.000000 0.000000
											CHANNELS 3 Xrotation Yrotation Zrotation
											JOINT LeftHandIndex4
											{
												OFFSET 5.188988 0.000000 0.000000
												CHANNELS 3 Xrotation Yrotation Zrotation
												End Site
												{
													OFFSET -0.178703 5.185913 0.000177
												}
											}
										}
									}
								}
								JOINT LeftHandThumb1
								{
									OFFSET 6.534897 -5.032593 5.900300
									CHANNELS 3 Xrotation Yrotation Zrotation
									JOINT LeftHandThumb2
									{
										OFFSET 3.818176 -2.204422 2.204423
										CHANNELS 3 Xrotation Yrotation Zrotation
										JOINT LeftHandThumb3
										{
											OFFSET 3.252098 -1.877594 1.877601
											CHANNELS 3 Xrotation Yrotation Zrotation
											JOINT LeftHandThumb4
											{
												OFFSET 5.251778 -3.032120 3.032117
												CHANNELS 3 Xrotation Yrotation Zrotation
												End Site
												{
													OFFSET 0.000023 6.780014 0.000000
												}
											}
										}
									}
								}
							}
						}
					}
				}
				JOINT RightShoulder
				{
					OFFSET -12.896300 26.716293 -4.548400
					CHANNELS 3 Xrotation Yrotation Zrotation
					JOINT RightArm
					{
						OFFSET -19.027000 -4.857010 -1.718400
						CHANNELS 3 Xrotation Yrotation Zrotation
						JOINT RightForeArm
						{
							OFFSET -24.179897 0.000000 0.000000
							CHANNELS 3 Xrotation Yrotation Zrotation
							JOINT RightHand
							{
								OFFSET -27.156403 0.000000 0.000000
								CHANNELS 3 Xrotation Yrotation Zrotation
								JOINT RightHandThumb1
								{
									OFFSET -6.591202 -4.852203 5.988100
									CHANNELS 3 Xrotation Yrotation Zrotation
									JOINT RightHandThumb2
									{
										OFFSET -3.818176 -2.204422 2.204423
										CHANNELS 3 Xrotation Yrotation Zrotation
										JOINT RightHandThumb3
										{
											OFFSET -3.252098 -1.877594 1.877601
											CHANNELS 3 Xrotation Yrotation Zrotation
											JOINT RightHandThumb4
											{
												OFFSET -5.251778 -3.032120 3.032117
												CHANNELS 3 Xrotation Yrotation Zrotation
												End Site
												{
													OFFSET -0.000023 6.780014 0.000000
												}
											}
										}
									}
								}
								JOINT RightHandIndex1
								{
									OFFSET -16.029404 0.000000 0.000000
									CHANNELS 3 Xrotation Yrotation Zrotation
									JOINT RightHandIndex2
									{
										OFFSET -5.213303 0.000000 0.000000
										CHANNELS 3 Xrotation Yrotation Zrotation
										JOINT RightHandIndex3
										{
											OFFSET -6.386528 0.000000 0.000000
											CHANNELS 3 Xrotation Yrotation Zrotation
											JOINT RightHandIndex4
											{
												OFFSET -5.189026 0.000000 0.000000
												CHANNELS 3 Xrotation Yrotation Zrotation
												End Site
												{
													OFFSET 0.236702 5.183624 0.001972
												}
											}
										}
									}
								}
							}
						}
					}
				}
			}
		}
	}
	JOINT LeftUpLeg
	{
		OFFSET 14.073000 -7.904099 -1.463000
		CHANNELS 3 Xrotation Yrotation Zrotation
		JOINT LeftLeg
		{
			OFFSET -0.109806 -34.073280 4.093200
			CHANNELS 3 Xrotation Yrotation Zrotation
			JOINT LeftFoot
			{
				OFFSET 0.109806 -29.899420 -6.319000
				CHANNELS 3 Xrotation Yrotation Zrotation
				JOINT LeftToeBase
				{
					OFFSET 1.551100 -14.988700 20.535801
					CHANNELS 3 Xrotation Yrotation Zrotation
					JOINT LeftToe_End
					{
						OFFSET 0.221200 0.570800 13.248301
						CHANNELS 3 Xrotation Yrotation Zrotation
						End Site
						{
							OFFSET 0.000000 13.262435 0.000000
						}
					}
				}
			}
		}
	}
	JOINT RightUpLeg
	{
		OFFSET -13.839300 -7.904099 -1.463000
		CHANNELS 3 Xrotation Yrotation Zrotation
		JOINT RightLeg
		{
			OFFSET 0.109694 -34.073219 4.093300
			CHANNELS 3 Xrotation Yrotation Zrotation
			JOINT RightFoot
			{
				OFFSET -0.109694 -29.899384 -6.319200
				CHANNELS 3 Xrotation Yrotation Zrotation
				JOINT RightToeBase
				{
					OFFSET -1.551100 -14.988700 20.535801
					CHANNELS 3 Xrotation Yrotation Zrotation
					JOINT RightToe_End
					{
						OFFSET -0.221200 0.570900 13.248299
						CHANNELS 3 Xrotation Yrotation Zrotation
						End Site
						{
							OFFSET 0.000000 13.262440 0.000000
						}
					}
				}
			}
		}
	}
}
MOTION
Frames: 6
Frame Time: 0.033333
-14.645226 78.565521 7.226851 -190.022256 -193.884509 -163.232710 -3.555963 16.305526 5.294013 -7.942852 17.715552 6.878335 -8.704980 17.200658 7.389409 1.171094 -10.083652 -4.084667 -9.994197 -53.241130 -11.877754 0.000000 -0.000000 -0.000001 -2.359441 6.640022 1.750330 -42.449544 9.375838 -32.270554 -0.000030 -134.462956 -0.000022 -4.102495 1.242646 73.044304 16.438508 15.692746 -58.590490 7.457597 5.626925 -105.962728 3.796167 5.479525 -69.406402 0.000003 -0.000002 -0.000001 -18.376938 -0.511503 -4.477306 15.742316 2.027049 9.774937 -19.014285 -4.196079 2.297153 -0.000001 0.000001 0.000002 -10.013987 48.630865 2.846593 -90.249605 57.235063 89.133975 -0.000145 76.608133 0.000115 -9.920279 19.688130 -16.151563 1.781174 9.260706 -10.424131 -5.645319 -9.781767 3.760260 2.033478 5.579517 -14.139536 -0.000000 -0.000002 -0.000000 -4.967667 -4.989133 77.932957 4.257384 -4.640007 85.070218 1.904947 -3.758380 53.744348 0.000001 -0.000001 -0.000001 -29.563709 -19.631429 -38.454686 33.545504 6.438929 -1.061121 -0.608417 -24.136828 3.604789 1.956821 -2.290257 4.888999 0.000000 0.000001 -0.000000 -2.369293 -22.950033 -30.978470 66.757784 9.884365 -3.847929 -2.361775 8.980736 -3.583152 -64.498378 -0.364996 0.454157 -0.000000 -0.000000 -0.000000 
-14.906116 78.834419 7.215859 -189.609180 -196.866501 -164.288944 -3.661807 16.666609 4.950603 -8.318066 17.957134 6.499814 -9.100091 17.426823 7.027712 1.162749 -10.280504 -4.823090 -10.627550 -53.829742 -13.331439 0.000002 -0.000000 0.000001 -3.729339 8.454158 3.003743 -47.006164 21.378111 -19.615012 -0.000031 -145.731279 -0.000025 -4.690969 -0.369921 67.703444 16.438501 15.692730 -58.590490 7.457594 5.626922 -105.962756 3.796163 5.479524 -69.406408 0.000002 -0.000001 -0.000000 -18.376936 -0.511495 -4.477306 15.742304 2.027043 9.774930 -19.014290 -4.196072 2.297155 0.000000 0.000000 0.000001 -7.998496 55.213094 -1.828832 -85.974542 53.981843 87.642201 -0.520289 90.088590 0.522486 4.224346 20.860692 -25.767705 1.781171 9.260705 -10.424132 -5.645320 -9.781769 3.760261 2.033479 5.579511 -14.139542 0.000003 -0.000001 -0.000002 -4.967670 -4.989133 77.932957 4.257386 -4.640013 85.070218 1.904944 -3.758374 53.744354 0.000001 -0.000001 -0.000002 -30.104434 -20.442186 -37.137036 34.327192 7.785396 -1.092370 -0.999043 -26.779985 3.059658 3.079487 -2.589225 5.454811 -0.000000 0.000003 -0.000000 -0.106933 -23.506525 -27.736813 64.498166 8.712569 -2.942279 -0.861576 11.894291 -5.557014 -65.129767 1.736898 -1.205270 0.000000 0.000000 -0.000000 
-15.115936 79.128716 7.055411 -189.331368 -199.089468 -165.277819 -3.688386 17.123119 4.480474 -8.567706 18.436883 6.033623 -9.367101 17.909750 6.577397 1.023373 -10.340844 -5.443400 -11.417495 -54.055838 -14.662381 0.000001 0.000000 0.000001 -4.929556 9.875303 4.235841 -67.237653 30.497297 -0.823755 -0.000001 -150.000011 0.000001 -15.903252 -4.235811 55.150455 16.438493 15.692734 -58.590490 7.457603 5.626928 -105.962762 3.796161 5.479530 -69.406402 0.000001 -0.000000 0.000003 -18.376911 -0.511501 -4.477296 15.742321 2.027045 9.774933 -19.014282 -4.196073 2.297157 -0.000002 0.000000 -0.000000 -3.429581 63.790784 -9.017056 -83.506542 53.459457 83.719377 -0.000084 99.465511 0.000082 15.353910 19.701232 -37.061269 1.781170 9.260706 -10.424133 -5.645303 -9.781773 3.760254 2.033472 5.579514 -14.139543 -0.000001 -0.000001 0.000002 -4.967670 -4.989133 77.932957 4.257385 -4.640010 85.070218 1.904945 -3.758378 53.744358 0.000001 -0.000000 0.000001 -30.319367 -21.363128 -36.061394 34.526507 8.648831 -1.103989 -1.207948 -27.802169 2.918571 3.484273 -3.382391 5.185991 0.000000 -0.000001 0.000000 1.687177 -23.687569 -25.123656 63.080875 8.405023 -1.680832 -0.045085 15.276012 -8.250717 -63.593405 4.812660 -3.767597 0.000000 0.000001 -0.000000 
-15.319886 79.413658 6.817861 -189.125056 -200.870645 -166.151715 -3.659855 17.614110 3.912575 -8.730324 19.009547 5.470862 -9.545360 18.497382 6.028513 0.849894 -10.311017 -5.967478 -12.049611 -54.087281 -15.717630 0.000000 -0.000000 0.000002 -5.938920 11.020187 5.276199 -90.370574 30.654111 17.128894 -0.000013 -150.000011 -0.000012 -30.480908 -6.866670 41.183315 16.438495 15.692740 -58.590490 7.457598 5.626932 -105.962762 3.796159 5.479531 -69.406408 0.000001 -0.000001 -0.000001 -18.376931 -0.511501 -4.477301 15.742324 2.027048 9.774924 -19.014294 -4.196068 2.297148 -0.000002 -0.000001 -0.000003 4.434048 68.238781 -18.043623 -86.392501 54.788164 83.349024 0.000007 103.173361 -0.000022 22.054336 18.908549 -46.412314 1.781167 9.260706 -10.424133 -5.645306 -9.781768 3.760262 2.033486 5.579512 -14.139554 -0.000000 -0.000002 -0.000000 -4.967673 -4.989133 77.932950 4.257385 -4.640013 85.070218 1.904941 -3.758379 53.744348 0.000000 -0.000000 -0.000000 -30.235717 -22.227223 -35.119320 34.447472 9.471172 -1.083061 -1.472076 -27.801974 3.020356 3.462607 -5.257862 4.915106 -0.000000 0.000002 -0.000000 2.925796 -23.755482 -23.458218 62.080252 8.889613 -0.095036 0.836305 18.722042 -11.017985 -60.619261 8.300507 -7.020932 -0.000000 -0.000002 -0.000000 
-15.541940 79.651215 6.534631 -188.933865 -202.251190 -166.828381 -3.607736 17.984902 3.451017 -8.769949 19.441596 4.944784 -9.590532 18.950553 5.508377 0.768687 -10.242202 -6.265543 -11.996992 -54.055514 -16.117623 0.000003 0.000000 0.000001 -6.789402 12.022092 6.085976 -99.881872 29.414234 23.819940 -0.000019 -150.000011 -0.000008 -36.592243 -7.693972 33.611463 16.438496 15.692734 -58.590483 7.457597 5.626931 -105.962735 3.796161 5.479530 -69.406422 -0.000002 0.000001 0.000000 -18.376921 -0.511494 -4.477306 15.742326 2.027050 9.774927 -19.014292 -4.196077 2.297157 -0.000002 0.000000 0.000000 11.642386 66.473136 -24.559492 -93.729047 56.710975 87.138133 0.000007 103.208803 -0.000011 24.803036 20.388111 -52.381230 1.781173 9.260707 -10.424134 -5.645307 -9.781772 3.760257 2.033478 5.579504 -14.139549 0.000001 -0.000001 -0.000005 -4.967672 -4.989133 77.932950 4.257381 -4.640013 85.070218 1.904940 -3.758371 53.744348 -0.000001 -0.000000 -0.000000 -30.136372 -22.909061 -34.364215 34.198088 10.344280 -0.986895 -1.630751 -27.708247 3.112599 3.378805 -7.645969 4.659190 -0.000000 0.000000 0.000000 3.813218 -23.600546 -22.337459 61.306924 9.522771 1.518346 1.720709 21.903734 -13.716457 -57.274264 10.668260 -9.953960 0.000000 0.000004 0.000000 
-15.811012 79.782616 6.198602 -188.732457 -202.964057 -167.138322 -3.511509 18.125886 3.104972 -8.636434 19.533660 4.481252 -9.446764 19.068742 5.033081 0.893041 -10.143635 -6.141377 -10.664577 -53.956353 -15.350707 0.000001 -0.000001 0.000002 -7.208909 12.566331 6.424294 -101.141209 27.802164 22.792744 -0.000000 -150.000011 -0.000002 -34.921948 -5.275920 31.006276 16.438496 15.692735 -58.590490 7.457596 5.626923 -105.962797 3.796158 5.479532 -69.406415 -0.000002 -0.000001 0.000001 -18.376921 -0.511499 -4.477286 15.742338 2.027047 9.774936 -19.014292 -4.196064 2.297160 -0.000003 -0.000001 0.000002 13.956940 59.729021 -25.132052 -104.807347 59.387853 93.404859 0.000009 101.761008 -0.000005 24.068825 24.796124 -57.905797 1.781170 9.260702 -10.424134 -5.645304 -9.781766 3.760262 2.033479 5.579505 -14.139547 0.000001 -0.000001 0.000000 -4.967671 -4.989133 77.932957 4.257383 -4.640013 85.070211 1.904944 -3.758376 53.744351 0.000000 0.000001 0.000000 -30.274510 -23.435081 -34.029307 33.723376 11.279388 -0.861607 -1.551429 -27.653920 3.224107 3.114610 -9.362732 4.212042 -0.000000 -0.000001 -0.000000 4.068628 -22.999436 -21.875873 61.146374 9.698805 2.862201 2.261142 24.418126 -15.996534 -54.760598 11.435083 -11.633667 -0.000000 0.000001 -0.000000 
